<?xml version="1.0" standalone="no"?><!DOCTYPE svg PUBLIC "-//W3C//DTD SVG 1.1//EN" "http://www.w3.org/Graphics/SVG/1.1/DTD/svg11.dtd"><svg t="1681824028000" class="icon" viewBox="0 0 1024 1024" version="1.1" xmlns="http://www.w3.org/2000/svg" p-id="5167" xmlns:xlink="http://www.w3.org/1999/xlink" width="200" height="200"><path d="M989.184 503.296c-5.12-38.912-16.896-77.824-36.864-111.616-23.552-40.96-61.952-69.12-88.064-108.032-1.024-1.536-2.56-3.072-4.096-4.096-3.072-28.16-8.704-55.296-23.552-82.432-28.672-51.2-82.944-94.208-135.68-118.784-56.832-26.112-131.072-20.992-191.488-13.312-71.68 9.728-125.44 39.936-178.176 88.576-14.848 13.824 7.68 36.352 22.528 22.528 50.688-46.592 102.4-73.728 171.52-80.896 61.952-6.656 130.048-8.704 184.832 23.552 45.056 26.624 86.016 61.952 108.544 110.592 22.016 47.616 11.776 104.448 23.04 155.136 4.096 19.968 34.816 11.776 30.72-8.704-3.072-13.824-4.608-27.136-6.144-40.448 9.728 10.752 19.456 20.992 29.184 31.744 27.648 29.696 45.568 65.024 56.32 104.448 9.728 36.864 11.264 75.776 8.704 114.176-1.024 1.024-2.048 2.048-2.56 3.072-24.064 35.84-50.176 80.896-87.04 105.472-32.256 21.504-79.872 19.968-122.368 16.896 28.16-37.888 57.856-78.336 72.192-122.88l3.072-10.752c0.512 0 1.024-0.512 1.536-0.512 41.472-21.504 76.288-54.272 54.784-103.936-14.336-33.28-43.52-53.248-77.312-59.904-0.512-42.496-12.288-82.944-44.544-109.056 0-1.024 0.512-2.048 0.512-3.072 2.048-38.912-5.632-81.92-51.2-87.04-32.768-3.584-62.464 17.92-86.528 38.912-2.048-1.024-4.096-1.536-6.144-1.536-73.216-5.632-148.992-9.216-218.624 17.408-11.776-17.92-24.064-35.84-32.256-55.808 0-0.512-0.512-0.512-0.512-1.024-1.536-6.144-6.144-11.264-14.848-10.752-88.576 8.704-165.888 52.736-228.864 114.688-69.632 67.584-80.896 168.448-72.704 260.608 8.192 87.04 48.64 167.424 130.048 208.384 39.936 19.968 82.432 19.456 125.952 19.968 54.784 0.512 110.08 2.56 164.864 3.072 62.464 52.224 148.992 61.44 228.352 63.488 92.16 2.048 168.96-38.912 233.472-102.912 61.44-64.512 70.656-179.2 59.392-265.216z m-207.36 91.648c-18.432 40.448-46.592 77.824-72.704 113.664h-3.584c-46.592-1.536-95.744-3.584-141.824 6.656-37.888 8.704-65.536 32.256-91.648 59.392-1.024 0-2.048-0.512-3.584-0.512 13.312-85.504 5.12-178.688-5.632-265.216 2.048-0.512 3.584-1.536 5.632-3.072 15.872-12.288 32.256-24.576 50.176-34.304 1.536 0.512 2.56 1.024 4.608 1.536 33.792 4.608 66.048 1.536 100.352 2.56 24.576 0.512 35.84 7.168 53.248 21.504 7.68 6.144 14.848 11.264 24.064 14.848 34.304 14.848 69.12 6.656 95.232-15.36 2.048 33.792-0.512 68.608-14.336 98.304z m-450.56-256.512C388.096 435.2 384 550.912 381.44 660.48c-16.384-14.848-35.328-28.16-55.296-39.936-23.04-13.824-47.616-25.088-71.68-37.888 3.584-47.616-3.072-95.232 12.288-141.824 13.312-38.912 35.328-73.728 64.512-102.4z m243.2 2.048l1.536 1.536c16.896 12.288 26.112 32.256 39.424 48.128 6.144 7.168 12.8 13.312 19.968 19.456-13.824 1.024-27.648 2.048-41.472 3.584-40.448 4.608-76.8 21.504-110.08 43.52 24.576-42.496 58.368-80.896 90.624-116.224z m216.064 102.4c0.512 3.584 1.024 7.168 1.536 11.264-1.024 1.024-2.048 2.048-2.56 3.072-18.432 27.648-54.272 39.424-83.968 21.504-15.872-9.728-25.088-26.112-43.008-32.768-14.848-5.632-30.208-2.56-45.568-1.536-9.216 0.512-18.944 1.024-28.16 1.024 33.28-5.632 69.12-3.072 102.4-3.072 31.232 0 68.096-5.12 99.328 0.512zM851.456 491.52c6.144 22.528-7.168 35.84-23.552 46.592 2.048-27.136-0.512-55.296-3.584-82.432 12.8 8.704 23.04 21.504 27.136 35.84z m-82.432-81.92c-28.672-1.536-58.88-2.56-88.576-2.048-14.848-16.384-33.792-28.16-47.104-46.08-11.776-15.872-22.016-31.232-37.376-43.52 3.072-3.072 6.144-6.656 9.728-9.728 0.512 0 1.024-0.512 1.536-0.512 27.648-13.312 79.872-2.048 106.496 8.704 40.96 15.872 53.76 53.248 55.296 93.184z m-44.544-137.216c1.024 4.608 1.536 9.216 1.536 14.336-22.528-9.216-51.2-15.36-78.336-16.384 6.656-5.632 13.312-10.752 20.48-14.336 19.968-9.728 49.152-7.68 56.32 16.384zM587.264 281.6c-50.176 46.592-99.84 102.4-132.608 161.792-5.12-37.888-11.264-77.312-25.088-112.128-5.12-12.288-11.264-23.552-17.92-34.816 55.296-20.992 116.736-18.944 175.616-14.848z m-354.304 488.448c-94.208-14.848-147.968-105.984-156.16-194.048-7.68-83.456 0-176.64 62.976-238.08 54.272-52.736 121.344-93.696 197.12-103.936 15.36 30.208 35.84 56.32 52.224 86.528 23.04 42.496 28.672 92.672 35.84 140.288 13.312 92.16 27.136 198.144 14.848 292.864-5.632-22.016-14.848-41.472-27.648-58.88 2.048-128.512 13.312-267.264-58.88-380.928 0-0.512-0.512-0.512-0.512-1.024 0-11.264-15.872-22.016-27.648-12.288C286.72 332.8 258.048 374.272 240.64 421.376c-17.92 47.616-14.336 95.232-16.384 144.896-2.56-1.536-5.12-3.072-8.192-4.608-18.944-12.288-38.912-25.6-53.248-43.008-24.064-29.696-15.872-62.976-1.024-93.696 9.216-18.432-18.432-34.304-27.648-15.872-99.328 202.24 256.512 197.632 278.016 366.592-19.456-0.512-38.912-1.024-57.856-1.536-39.936-1.024-81.92 2.56-121.344-4.096z m680.96-34.304c-54.784 61.952-129.536 103.936-213.504 103.424-67.584-0.512-145.408-6.144-202.24-46.08 17.92-18.432 36.352-35.84 61.44-44.032 24.576-8.192 52.736-8.704 78.848-9.216 56.832-1.536 113.664 4.608 170.496 2.048 65.536-3.072 106.496-41.472 141.312-88.576-5.632 30.208-16.384 59.904-36.352 82.432z" fill="#73BA2D" p-id="5168"></path></svg>